<?xml version="1.0" standalone="no"?><!DOCTYPE svg PUBLIC "-//W3C//DTD SVG 1.1//EN" "http://www.w3.org/Graphics/SVG/1.1/DTD/svg11.dtd"><svg t="1623030636161" class="icon" viewBox="0 0 1024 1024" version="1.1" xmlns="http://www.w3.org/2000/svg" p-id="40061" xmlns:xlink="http://www.w3.org/1999/xlink" width="32" height="32"><defs><style type="text/css"></style></defs><path d="M881.777778 910.222222a113.777778 113.777778 0 0 1-113.777778 113.777778H142.222222a113.777778 113.777778 0 0 1-113.777778-113.777778V113.777778a113.777778 113.777778 0 0 1 113.777778-113.777778h625.777778a113.777778 113.777778 0 0 1 113.777778 113.777778v796.444444z" fill="#DCDEE3" p-id="40062"></path><path d="M768 682.666667a28.444444 28.444444 0 0 1-28.444444 28.444444H170.666667a28.444444 28.444444 0 0 1 0-56.888889h568.888889a28.444444 28.444444 0 0 1 28.444444 28.444445z m-455.111111 113.777777a28.444444 28.444444 0 0 1-28.444445 28.444445H170.666667a28.444444 28.444444 0 0 1 0-56.888889h113.777777a28.444444 28.444444 0 0 1 28.444445 28.444444zM768 227.555556a28.444444 28.444444 0 0 1-28.444444 28.444444H170.666667a28.444444 28.444444 0 0 1 0-56.888889h568.888889a28.444444 28.444444 0 0 1 28.444444 28.444445z m0 113.777777a28.444444 28.444444 0 0 1-28.444444 28.444445H170.666667a28.444444 28.444444 0 0 1 0-56.888889h568.888889a28.444444 28.444444 0 0 1 28.444444 28.444444z m0 113.777778a28.444444 28.444444 0 0 1-28.444444 28.444445H170.666667a28.444444 28.444444 0 0 1 0-56.888889h568.888889a28.444444 28.444444 0 0 1 28.444444 28.444444z m0 113.777778a28.444444 28.444444 0 0 1-28.444444 28.444444H170.666667a28.444444 28.444444 0 0 1 0-56.888889h568.888889a28.444444 28.444444 0 0 1 28.444444 28.444445z" fill="#C4C6CF" p-id="40063"></path><path d="M881.777778 178.403556c-23.523556-15.217778-52.252444-16.469333-71.708445-0.654223l-22.528 18.375111-42.211555 34.446223-2.844445 2.275555-67.584 55.125334-337.863111 275.512888c-12.430222 10.154667-22.556444 34.673778-33.365333 58.993778-10.752 24.177778-27.562667 81.123556-41.045333 124.899556-4.209778 7.111111-30.293333 52.508444-15.672889 69.774222 14.791111 17.493333 66.161778 0.284444 73.045333-2.161778 46.250667-4.949333 106.126222-10.609778 132.209778-16.497778 26.282667-6.001778 52.736-11.235556 65.166222-21.390222 0.227556-0.170667 0.284444-0.512 0.483556-0.654222l337.294222-274.944 22.528-18.375111 4.096-3.356445V178.403556z" fill="#A0A2AD" p-id="40064"></path><path d="M516.124444 640.739556s-36.238222-53.504-60.216888-72.618667c-19.114667-23.978667-72.504889-60.188444-72.504889-60.188445-12.743111-12.686222-33.877333-13.653333-46.336-1.223111-12.430222 12.458667-22.556444 38.855111-33.365334 65.166223-13.425778 32.597333-36.295111 118.158222-50.289777 163.612444-2.360889 7.736889 14.705778-12.8 14.307555-5.973333-0.284444 5.319111 0.768 11.207111 2.104889 16.526222l-4.152889 4.522667 5.916445 1.905777c0.711111 2.332444 1.422222 4.380444 1.934222 5.973334l4.522666-4.152889c5.319111 1.336889 11.207111 2.389333 16.497778 2.104889 6.826667-0.398222-13.738667 16.696889-5.973333 14.307555 45.454222-14.023111 131.043556-36.864 163.612444-50.289778 26.282667-10.837333 52.736-20.935111 65.166223-33.393777 12.487111-12.373333 11.548444-33.507556-1.223112-46.279111z" fill="#EF9A9A" p-id="40065"></path><path d="M719.985778 123.761778a63.658667 63.658667 0 0 0 0 90.112l90.083555 90.112a63.772444 63.772444 0 0 0 90.112 0l90.140445-90.112a63.772444 63.772444 0 0 0 0-90.112l-90.140445-90.112a63.715556 63.715556 0 0 0-90.112 0l-90.083555 90.112z" fill="#EF5350" p-id="40066"></path><path d="M337.066667 506.737778l90.168889 90.168889 89.998222 90.055111 337.948444-337.891556-180.252444-180.224L337.066667 506.737778z" fill="#FFD74D" p-id="40067"></path><path d="M321.365333 760.661333s-58.595556 32.227556-74.410666 16.384c-15.843556-15.872 16.526222-74.268444 16.526222-74.268444s55.495111 1.024 57.884444 57.884444z" fill="#A0A2AD" p-id="40068"></path><path d="M674.929778 168.817778l112.64-112.64 180.224 180.252444-112.64 112.64-180.224-180.252444z" fill="#DCDEE3" p-id="40069"></path><path d="M742.485333 101.205333l22.528-22.528 180.224 180.195556-22.528 22.528-180.224-180.195556zM697.457778 146.261333l22.499555-22.499555 180.224 180.195555-22.528 22.528-180.195555-180.224z" fill="#C4C6CF" p-id="40070"></path></svg>